<mxfile host="app.diagrams.net" modified="2020-11-24T04:59:32.280Z" agent="5.0 (Windows NT 10.0; Win64; x64) AppleWebKit/537.36 (KHTML, like Gecko) Chrome/87.0.4280.66 Safari/537.36" etag="0ssUeHMuzqxkoOxNwMLe" version="13.10.1" type="github">
  <diagram id="uGjCVvAJKFtDhFAxQdyh" name="第 1 页">
    <mxGraphModel dx="736" dy="659" grid="1" gridSize="10" guides="1" tooltips="1" connect="1" arrows="1" fold="1" page="1" pageScale="1" pageWidth="827" pageHeight="1169" math="0" shadow="0">
      <root>
        <mxCell id="0" />
        <mxCell id="1" parent="0" />
        <mxCell id="UHsi5IoeeFh57TIBE851-1" value="站长" style="shape=image;verticalLabelPosition=bottom;labelBackgroundColor=#ffffff;verticalAlign=top;aspect=fixed;imageAspect=0;image=data:image/svg+xml,PHN2ZyB4bWxucz0iaHR0cDovL3d3dy53My5vcmcvMjAwMC9zdmciIHhtbG5zOnhsaW5rPSJodHRwOi8vd3d3LnczLm9yZy8xOTk5L3hsaW5rIiB0PSIxNjA2MTM2ODU3NTc2IiBjbGFzcz0iaWNvbiIgdmlld0JveD0iMCAwIDEwMjQgMTAyNCIgdmVyc2lvbj0iMS4xIiBwLWlkPSIyNzI5NSIgd2lkdGg9IjEyOCIgaGVpZ2h0PSIxMjgiPjxkZWZzPjxzdHlsZSB0eXBlPSJ0ZXh0L2NzcyIvPjwvZGVmcz48cGF0aCBkPSJNNjk1LjY0MjcyMiA1OTkuNTI0NDI4Yy0yMy4wMTkyODMtMTIuMjc2OTUxLTQ3LjA2MTY0NS0yMS45OTYyMDMtNzEuNjE1NTQ2LTMwLjE4MDgzNyAxMjEuMjM0ODg5LTY1LjQ3NzA3MSAxODMuMTMxMTgyLTIwNS4xMjczODUgMTQ5LjM2OTU2Ny0zMzguNjM5MjI1UzYxOC45MTE3NzkgMy4wNjkyMzggNDgxLjMwNzYyMyAzLjA2OTIzOEMzNDMuMTkxOTI3IDMuMDY5MjM4IDIyMi45ODAxMTggOTcuMTkyNTI3IDE4OS4yMTg1MDMgMjMwLjcwNDM2NmMtMzMuNzYxNjE1IDEzMy41MTE4MzkgMjcuNjIzMTM5IDI3My4xNjIxNTQgMTQ5LjM2OTU2OCAzMzguNjM5MjI1QzE2Mi42MTg0NDMgNjI0LjA3ODMzIDQxLjM4MzU1NSA3ODUuMjEzMzA4IDM4LjgyNTg1NyA5NjkuMzY3NTY5YzAgMTYuODgwODA3IDEzLjMwMDAzIDMwLjE4MDgzNyAzMC4xODA4MzcgMzAuMTgwODM3czMwLjE4MDgzNy0xMy4zMDAwMyAzMC4xODA4MzctMzAuMTgwODM3YzAtMTk5LjUwMDQ1IDE3MS44NzczMS0zNjEuMTQ2OTY4IDM4Mi42MzE2MzItMzYxLjE0Njk2OCA2NC45NjU1MzEgMCAxMjguOTA3OTgzIDE1Ljg1NzcyOCAxODYuMjAwNDE5IDQ1LjUyNzAyNiA3LjE2MTU1NSAzLjU4MDc3NyAxNS4zNDYxODggNC4wOTIzMTcgMjMuMDE5MjgzIDEuNTM0NjE5czEzLjgxMTU3LTguMTg0NjM0IDE3LjM5MjM0Ny0xNS4zNDYxODhjNy4xNjE1NTUtMTQuMzIzMTA5IDEuNTM0NjE5LTMyLjczODUzNS0xMi43ODg0OS00MC40MTE2M3pNMzExLjQ3NjQ3MSA0NzUuMjIwMzAyQzI2NS45NDk0NDUgNDMwLjIwNDgxNiAyNDAuODg0MDA0IDM2OC44MjAwNjIgMjQwLjg4NDAwNCAzMDQuODc3NjFjMC0xMzMuMDAwMyAxMDcuOTM0ODU5LTI0MC45MzUxNTggMjQwLjkzNTE1OS0yNDAuOTM1MTU4czI0MC45MzUxNTggMTA3LjkzNDg1OSAyNDAuOTM1MTU4IDI0MC45MzUxNTgtMTA3LjkzNDg1OSAyNDAuOTM1MTU4LTI0MC45MzUxNTggMjQwLjkzNTE1OWMtNjMuOTQyNDUyIDAtMTI1LjMyNzIwNi0yNS41NzY5ODEtMTcwLjM0MjY5Mi03MC41OTI0Njd6TTk5Ni45Mzk1NTQgNjQxLjQ3MDY3NmMtMTcuMzkyMzQ3LTI0LjA0MjM2Mi00MS45NDYyNDgtNDIuNDU3Nzg4LTcwLjU5MjQ2Ni01MS4xNTM5NjEtMTguNDE1NDI2LTUuNjI2OTM2LTM4LjM2NTQ3MSAwLjUxMTU0LTQ5LjYxOTM0MyAxNi4zNjkyNjhsLTQwLjkyMzE2OSA1Ni43ODA4OTctNzcuNzU0MDIxIDEwNy40MjMzMTktODQuOTE1NTc2IDExNy42NTQxMTFjLTMuMDY5MjM4IDQuMDkyMzE3LTUuMTE1Mzk2IDkuMjA3NzEzLTUuNjI2OTM2IDE0LjMyMzEwOWwtOS43MTkyNTMgODguNDk2MzU0Yy0xLjAyMzA3OSAxMC43NDIzMzIgMy41ODA3NzcgMjAuOTczMTI0IDEyLjI3Njk1MSAyNy4xMTE1OTkgOC42OTYxNzMgNi4xMzg0NzUgMTkuOTUwMDQ1IDcuMTYxNTU1IDI5LjY2OTI5NyAzLjA2OTIzOGwyMy41MzA4MjMtMTAuNzQyMzMyIDI5LjY2OTI5Ny0xMy4zMDAwMyAyNy42MjMxNC0xMi4yNzY5NTFjNC42MDM4NTctMi4wNDYxNTggOC42OTYxNzMtNS42MjY5MzYgMTEuNzY1NDExLTkuNzE5MjUybDQzLjk5MjQwNi01OS44NTAxMzUgNDEuOTQ2MjQ5LTU3LjI5MjQzNyAxMTkuMTg4NzMtMTYzLjY5MjY3N2MxMC43NDIzMzItMTYuODgwODA3IDEwLjc0MjMzMi0zNy44NTM5MzEtMC41MTE1NC01My4yMDAxMnpNNzUyLjQyMzYxOSA5NjQuMjUyMTczbC0yOS42NjkyOTggMTMuMzAwMDMtMzUuODA3NzczIDE1Ljg1NzcyOCA5LjcxOTI1My04Ny40NzMyNzRjOS4yMDc3MTMgNC4wOTIzMTcgMTcuOTAzODg3IDguNjk2MTczIDI2LjA4ODUyIDEzLjgxMTU3IDQuMDkyMzE3IDIuNTU3Njk4IDguMTg0NjM0IDUuMTE1Mzk2IDEyLjI3Njk1MSA4LjE4NDYzMyA2LjEzODQ3NSA0LjYwMzg1NyAxMS43NjU0MTEgOS4yMDc3MTMgMTcuMzkyMzQ3IDE0LjMyMzExIDUuMTE1Mzk2IDQuNjAzODU3IDEwLjIzMDc5MiA5LjcxOTI1MyAxNS4zNDYxODggMTUuMzQ2MTg4bC0xNS4zNDYxODggNi42NTAwMTV6IG0xMTQuNTg0ODczLTE0Mi4yMDgwMTNsLTMxLjIwMzkxNiA0Mi40NTc3ODgtNTAuMTMwODgyIDY4LjU0NjMwOWMtMTAuMjMwNzkyLTEwLjc0MjMzMi0yMS40ODQ2NjQtMjAuNDYxNTg1LTMzLjI1MDA3NS0yOS4xNTc3NTgtOS4yMDc3MTMtNi42NTAwMTUtMTguNDE1NDI2LTEyLjI3Njk1MS0yOC4xMzQ2NzktMTcuOTAzODg3LTMuMDY5MjM4LTEuNTM0NjE5LTYuNjUwMDE1LTMuNTgwNzc3LTkuNzE5MjUzLTUuMTE1Mzk2bDc4Ljc3NzEwMS0xMDguOTU3OTM4IDQyLjQ1Nzc4OC01OC44MjcwNTYgMzMuNzYxNjE0LTQ2LjU1MDEwNWMyOC4xMzQ2NzkgMTAuMjMwNzkyIDUzLjIwMDEyIDI4LjY0NjIxOCA3Mi4xMjcwODYgNTIuMTc3MDQxbC03NC42ODQ3ODQgMTAzLjMzMTAwMnogbTEwNS44ODg3MDEtMTQ1Ljc4ODc5bC0xMy4zMDAwMyAxOC40MTU0MjZjLTE5LjQzODUwNS0yMi41MDc3NDMtNDMuOTkyNDA3LTQwLjQxMTYzLTcyLjEyNzA4Ni01Mi4xNzcwNGwxMy4zMDAwMy0xNy45MDM4ODdjMy41ODA3NzctNS4xMTUzOTYgMTAuMjMwNzkyLTcuMTYxNTU1IDE2LjM2OTI2OC01LjYyNjkzNiAyMi41MDc3NDMgNy4xNjE1NTUgNDEuOTQ2MjQ4IDIwLjk3MzEyNCA1NS4yNDYyNzggNDAuNDExNjMgNC4wOTIzMTcgNC42MDM4NTcgNC4wOTIzMTcgMTEuNzY1NDExIDAuNTExNTQgMTYuODgwODA3eiIgcC1pZD0iMjcyOTYiLz48L3N2Zz4=;fontSize=15;" vertex="1" parent="1">
          <mxGeometry x="390" y="310" width="78" height="78" as="geometry" />
        </mxCell>
        <mxCell id="UHsi5IoeeFh57TIBE851-3" value="农民" style="shape=image;verticalLabelPosition=bottom;labelBackgroundColor=#ffffff;verticalAlign=top;aspect=fixed;imageAspect=0;image=data:image/svg+xml,PHN2ZyB4bWxucz0iaHR0cDovL3d3dy53My5vcmcvMjAwMC9zdmciIHhtbG5zOnhsaW5rPSJodHRwOi8vd3d3LnczLm9yZy8xOTk5L3hsaW5rIiB0PSIxNjA2MTM2ODMwMjMxIiBjbGFzcz0iaWNvbiIgdmlld0JveD0iMCAwIDEwMjQgMTAyNCIgdmVyc2lvbj0iMS4xIiBwLWlkPSIyNjcxNyIgd2lkdGg9IjEyOCIgaGVpZ2h0PSIxMjgiPjxkZWZzPjxzdHlsZSB0eXBlPSJ0ZXh0L2NzcyIvPjwvZGVmcz48cGF0aCBkPSJNNzI0LjA4MTc3OCAyMzUuMTc4NjY3Yy03LjE2OC01LjM0NzU1Ni0xMi41MTU1NTYtMTAuMTI2MjIyLTE4LjY1OTU1Ni0xMy42NTMzMzQtMjUuNDg2MjIyLTE0LjkwNDg4OS01My4yNDgtMjMuMDk2ODg5LTgxLjY5MjQ0NC0yNy44NzU1NTUtMzIuNDI2NjY3LTUuNjg4ODg5LTY1LjMwODQ0NC0xMC42OTUxMTEtOTguMzA0LTEyLjg1Njg4OS0zOC4yMjkzMzMtMi4zODkzMzMtNzYuNTcyNDQ0LTMuMjk5NTU2LTExNC41NzQyMjItMS43MDY2NjctNTguNDgxNzc4IDIuMzg5MzMzLTExNi42MjIyMjIgOS40NDM1NTYtMTcxLjkxODIyMyAzMC42MDYyMjItMTIuNzQzMTExIDQuNzc4NjY3LTI0LjM0ODQ0NCAxMi41MTU1NTYtMzYuNTIyNjY2IDE5LjU2OTc3OC02LjU5OTExMSAzLjg2ODQ0NC02LjI1Nzc3OCA4LjA3ODIyMi0wLjIyNzU1NiAxMi45NzA2NjcgMTkuMjI4NDQ0IDE0LjkwNDg4OSA0MS42NDI2NjcgMjEuOTU5MTExIDY0LjE3MDY2NyAyOC43ODU3NzggNS4xMiAxLjcwNjY2NyAxMC40Njc1NTYgMi4zODkzMzMgMTUuNzAxMzMzIDQuMjA5Nzc3IDEzLjk5NDY2NyA0LjQzNzMzMyAyMi4zMDA0NDQgMTkuMjI4NDQ0IDE4LjY1OTU1NiAzMi44ODE3NzgtMy44Njg0NDQgMTQuOTA0ODg5LTE3LjE4MDQ0NCAyMy41NTItMzEuNzQ0IDIwLjEzODY2Ny0zMC44MzM3NzgtNy43MzY4ODktNjEuNDQtMTYuNzI1MzMzLTg4LjE3Nzc3OC0zNS4yNzExMTEtNy41MDkzMzMtNS4xMi0xNC45MDQ4ODktMTEuNDkxNTU2LTIwLjgyMTMzMy0xOC40MzItMjIuODY5MzMzLTI3LjA3OTExMS0yMC4yNTI0NDQtNjAuNjQzNTU2IDUuOTE2NDQ0LTg0LjMwOTMzNCAyMS4zOTAyMjItMTkuMjI4NDQ0IDQ2LjY0ODg4OS0yOS42OTYgNzMuMDQ1MzMzLTM4LjAwMTc3NyAxMi40MDE3NzgtMy44Njg0NDQgMjQuOTE3MzMzLTYuNDg1MzMzIDM3LjA5MTU1Ni0xMC4zNTM3NzggMi42MTY4ODktMC42ODI2NjcgNi4yNTc3NzgtMy44Njg0NDQgNi40ODUzMzMtNi4yNTc3NzggNC43Nzg2NjctMzguNjg0NDQ0IDI0LjkxNzMzMy02Ny40NzAyMjIgNTQuMjcyLTg5LjMxNTU1NSA0NC4wMzItMzIuODgxNzc4IDkzLjg2NjY2Ny00My4wMDggMTQ3LjAwMDg4OS0zNy40MzI4ODkgMzQuMTMzMzMzIDMuNTI3MTExIDY1Ljg3NzMzMyAxNC4yMjIyMjIgOTQuMjA4IDM0LjcwMjIyMiAzMC45NDc1NTYgMjIuNTI4IDUyLjkwNjY2NyA1MS42NTUxMTEgNTguMTQwNDQ1IDkyLjYxNTExMSAwLjM0MTMzMyAyLjYxNjg4OSA1LjEyIDUuMzQ3NTU2IDguNTMzMzMzIDYuNDg1MzMzIDIxLjE2MjY2NyA3LjA1NDIyMiA0My4wMDggMTEuOTQ2NjY3IDYzLjQ4OCAyMC43MDc1NTYgMTUuNzAxMzMzIDYuNTk5MTExIDMwLjgzMzc3OCAxNi4wNDI2NjcgNDQuMDMyIDI3LjA3OTExMSAyOS45MjM1NTYgMjQuNjg5Nzc4IDI4Ljg5OTU1NiA2NS44NzczMzMtMC4yMjc1NTYgOTEuODE4NjY3LTIyLjg2OTMzMyAyMC4yNTI0NDQtNTAuMTc2IDMwLjYwNjIyMi03OC4wNTE1NTUgMzkuNDgwODg5LTkuNzg0ODg5IDMuMTg1Nzc4LTE5LjkxMTExMSA1LjEyLTI5LjkyMzU1NiA3LjczNjg4OC0xMC40Njc1NTYgMi43MzA2NjctMjAuODIxMzMzIDMuNjQwODg5LTI5LjkyMzU1NS01LjAwNjIyMi00LjQzNzMzMyAxNi42MTE1NTYtNy45NjQ0NDQgMzIuNjU0MjIyLTEyLjk3MDY2NyA0OC4xMjgtMTMuMDg0NDQ0IDQwLjM5MTExMS0zMy43OTIgNzUuNjYyMjIyLTY2LjU2IDEwMS44MzExMTEtNDcuOTAwNDQ0IDM4LjIyOTMzMy0xMTEuNzI5Nzc4IDM1LjA0MzU1Ni0xNTYuNDQ0NDQ0LTcuMzk1NTU1LTM3Ljc3NDIyMi0zNS45NTM3NzgtNTcuOTEyODg5LTgyLjAzMzc3OC02Ny45MjUzMzQtMTMzLjU3NTExMS02LjQ4NTMzMy0zMy4yMjMxMTEtNy4wNTQyMjItNjYuNzg3NTU2LTMuNjQwODg5LTEwMC40NjU3NzggMS43MDY2NjctMTQuNTYzNTU2IDEzLjA4NDQ0NC0yNS4yNTg2NjcgMjYuOTY1MzM0LTI0LjU3NiAxMy40MjU3NzggMC42ODI2NjcgMjQuMzQ4NDQ0IDEyLjE3NDIyMiAyNC4xMjA4ODkgMjYuNTEwMjIyLTAuMjI3NTU2IDE1LjM2LTIuMDQ4IDMwLjYwNjIyMi0xLjI1MTU1NiA0NS45NjYyMjIgMi4wNDggNDUuNTExMTExIDEyLjE3NDIyMiA4OC41MTkxMTEgMzguOTEyIDEyNS44MzgyMjMgMTEuOTQ2NjY3IDE2LjYxMTU1NiAyNi41MTAyMjIgMzAuMDM3MzMzIDQ1LjczODY2NyAzNi41MjI2NjYgMjYuOTY1MzMzIDguOTg4NDQ0IDUwLjE3Ni0wLjIyNzU1NiA3MC4wODcxMTEtMTkuMjI4NDQ0IDI3Ljg3NTU1Ni0yNi41MTAyMjIgNDEuNTI4ODg5LTYxLjIxMjQ0NCA0OS4wMzgyMjItOTkuMTAwNDQ1IDUuMzQ3NTU2LTI2LjE2ODg4OSA2LjgyNjY2Ny01Mi45MDY2NjcgMy44Njg0NDQtNzkuNjQ0NDQ0LTIuMTYxNzc4LTE4LjY1OTU1NiA0LjY2NDg4OS0zMC42MDYyMjIgMTguNjU5NTU2LTM1LjA0MzU1NiAxNC41NjM1NTYtNC42NjQ4ODkgMzAuMjY0ODg5IDUuNjg4ODg5IDMyLjMxMjg4OSAyMS45NTkxMTEgMC45MTAyMjIgNy45NjQ0NDQgMS40NzkxMTEgMTYuMDQyNjY3IDEuODIwNDQ0IDI0LjEyMDg4OSAwLjM0MTMzMyA4LjA3ODIyMiAwLjIyNzU1NiAxNi4yNzAyMjIgMC4yMjc1NTYgMjQuOTE3MzM0IDM3LjA5MTU1Ni0xMi4xNzQyMjIgNzUuNDM0NjY3LTE3LjE4MDQ0NCAxMDcuMDY0ODg5LTQ2LjA4eiBtMCAwIiBwLWlkPSIyNjcxOCIvPjxwYXRoIGQ9Ik05OTEuMTE4MjIyIDQzMi4yNDE3NzhjLTEyLjQwMTc3OC0wLjM0MTMzMy0yNC41NzYgMTAuOTIyNjY3LTI2LjA1NTExMSAyNC4wMDcxMTEtMi4zODkzMzMgMjEuOTU5MTExLTMuNTI3MTExIDQzLjkxODIyMi03LjE2OCA2NS4zMDg0NDQtMy44Njg0NDQgMjIuNjQxNzc4LTkuNzg0ODg5IDQ1LjA1Ni0xNS40NzM3NzggNjcuMzU2NDQ1LTIuMTYxNzc4IDkuMjE2LTguMzA1Nzc4IDE1LjEzMjQ0NC0xOC4wOTA2NjYgMTQuOTA0ODg5LTEzLjg4MDg4OS0wLjIyNzU1Ni0yNy41MzQyMjItMC41Njg4ODktNDIuNzgwNDQ1LTAuOTEwMjIzIDQuNDM3MzMzLTE1LjI0NjIyMiA4LjMwNTc3OC0yOC4yMTY4ODkgMTEuOTQ2NjY3LTQwLjk2IDExLjQ5MTU1Ni0zOC4zNDMxMTEgMjMuMDk2ODg5LTc2LjY4NjIyMiAzMy45MDU3NzgtMTE1LjI1Njg4OCA0LjQzNzMzMy0xNS44MTUxMTEtNy41MDkzMzMtMzEuODU3Nzc4LTIzLjIxMDY2Ny0zMi44ODE3NzgtMTMuOTk0NjY3LTAuNjgyNjY3LTIzLjA5Njg4OSA3LjA1NDIyMi0yOC40NDQ0NDQgMjQuNjg5Nzc4LTEwLjM1Mzc3OCAzNC43MDIyMjItMjAuNDggNjkuMjkwNjY3LTMwLjgzMzc3OCAxMDMuOTkyODg4LTQuNDM3MzMzIDE0Ljc5MTExMS04Ljg3NDY2NyAyOS40Njg0NDQtMTMuNjUzMzM0IDQ1Ljk2NjIyMy0xMS42MDUzMzMtNS4xMi0yMi42NDE3NzgtOS4yMTYtMzIuODgxNzc3LTE0LjkwNDg4OS0yMi4xODY2NjctMTIuMTc0MjIyLTI2LjE2ODg4OS0yMi42NDE3NzgtMjAuODIxMzM0LTQ4LjY5Njg4OSA3LjczNjg4OS0zOC42ODQ0NDQgMjMuMDk2ODg5LTc0LjE4MzExMSA0MC4wNDk3NzgtMTA4Ljk5OTExMSA3LjM5NTU1Ni0xNS4zNiAzLjI5OTU1Ni0zMS41MTY0NDQtMTAuMDEyNDQ0LTM4LjkxMi0xMi45NzA2NjctNy4zOTU1NTYtMjguMjE2ODg5LTIuMzg5MzMzLTM1LjYxMjQ0NSAxMi41MTU1NTUtMjEuOTU5MTExIDQ1LjA1Ni00MS44NzAyMjIgOTAuOTA4NDQ0LTQ4LjEyOCAxNDEuODgwODg5LTIuNzMwNjY3IDIyLjMwMDQ0NCAxLjQ3OTExMSA0My4wMDggMTUuMzYgNjAuODcxMTExIDE3LjI5NDIyMiAyMi4zMDA0NDQgNDAuNzMyNDQ0IDM0LjM2MDg4OSA2NS42NDk3NzggNDMuNTc2ODg5IDMuNjQwODg5IDEuMjUxNTU2IDcuMTY4IDIuNjE2ODg5IDEwLjkyMjY2NyAzLjg2ODQ0NS0wLjM0MTMzMyAyLjA0OC0wLjY4MjY2NyAyLjczMDY2Ny0wLjkxMDIyMyAzLjY0MDg4OS0zMC40OTI0NDQgMTAyLjUxMzc3OC02MS4yMTI0NDQgMjA1LjE0MTMzMy05MS4yNDk3NzcgMzA3Ljg4MjY2Ni0yLjczMDY2NyA5LjU1NzMzMy02LjU5OTExMSAxMS45NDY2NjctMTUuNDczNzc4IDguODc0NjY3IDAuMzQxMzMzLTkuNzg0ODg5IDEuMTM3Nzc4LTE5LjU2OTc3OCAxLjI1MTU1NS0yOS4zNTQ2NjcgMC42ODI2NjctNjYuNzg3NTU2IDEuMTM3Nzc4LTEzMy42ODg4ODkgMi4xNjE3NzgtMjAwLjQ3NjQ0NCAwLjM0MTMzMy0yMC4xMzg2NjcgMS44MjA0NDQtNDAuMTYzNTU2IDMuNjQwODg5LTYwLjMwMjIyMiAwLjkxMDIyMi0xMC4wMTI0NDQgMi45NTgyMjItMjAuNDggNi44MjY2NjctMjkuNDY4NDQ1IDYuMjU3Nzc4LTE1LjEzMjQ0NCA1LjkxNjQ0NC0yNy41MzQyMjItNS45MTY0NDUtMzguMzQzMTExLTguODc0NjY3LTcuOTY0NDQ0LTE4LjY1OTU1Ni0xNS4xMzI0NDQtMjkuMTI3MTExLTIwLjI1MjQ0NC00Ni4wOC0yMi41MjgtOTIuMzg3NTU2LTQ0LjI1OTU1Ni0xMzguNjk1MTExLTY1Ljg3NzMzNC0xMy4zMTItNi4yNTc3NzgtMjQuMTIwODg5LTIuNzMwNjY3LTMzLjMzNjg4OSA5LjIxNi0xOC4wOTA2NjcgMjIuODY5MzMzLTM2LjE4MTMzMyA0NS43Mzg2NjctNTUuMjk2IDY5LjUxODIyMi0xOS42ODM1NTYtMjMuMjEwNjY3LTM4LjY4NDQ0NC00NS41MTExMTEtNTcuNTcxNTU1LTY4LjAzOTExMS0xMC4wMTI0NDQtMTEuOTQ2NjY3LTE5LjY4MzU1Ni0xNC43OTExMTEtMzMuNTY0NDQ1LTguNTMzMzMzLTU5LjYxOTU1NiAyNy4wNzkxMTEtMTE3LjMwNDg4OSA1Ny41NzE1NTYtMTcyLjgyODQ0NCA5Mi43Mjg4ODktNTEuNDI3NTU2IDMyLjg4MTc3OC05My4xODQgNzQuMjk2ODg5LTExNy42NDYyMjIgMTM0LjE0NEM0Ni41MzUxMTEgODIyLjA0NDQ0NCAyNS4wMzExMTEgOTAyLjAzMDIyMiA3Ljk2NDQ0NCA5ODMuODM2NDQ0Yy0zLjE4NTc3OCAxNS4zNiA2LjQ4NTMzMyAyOC43ODU3NzggMjEuMTYyNjY3IDMxLjc0NCA0LjIwOTc3OCAwLjY4MjY2NyA4LjUzMzMzMyAxLjEzNzc3OCAxMi43NDMxMTEgMS4xMzc3NzhoOTIwLjgwMzU1NmMzLjY0MDg4OSAwIDcuMzk1NTU2LTAuMjI3NTU2IDExLjAzNjQ0NC0wLjc5NjQ0NCAxOC4wOTA2NjctMy4yOTk1NTYgMjYuOTY1MzMzLTE3Ljc0OTMzMyAyMS45NTkxMTEtMzYuMTgxMzM0LTMuMTg1Nzc4LTExLjQ5MTU1Ni03LjM5NTU1Ni0yMi42NDE3NzgtMTEuNjA1MzMzLTMzLjc5Mi0yMC4xMzg2NjctNTEuODgyNjY3LTQ1LjE2OTc3OC0xMDAuNDY1Nzc4LTgwLjU1NDY2Ny0xNDIuNTYzNTU1LTExLjI2NC0xMy40MjU3NzgtMjYuMzk2NDQ0LTE1LjM2LTM3Ljc3NDIyMi01LjAwNjIyMi0xMS45NDY2NjcgMTAuOTIyNjY3LTEyLjc0MzExMSAyNi45NjUzMzMtMS4yNTE1NTUgNDAuNzMyNDQ0IDI1LjI1ODY2NyAzMC4yNjQ4ODkgNDQuNjAwODg5IDY0LjUxMiA2MC44NzExMTEgMTAwLjkyMDg4OSAyLjk1ODIyMiA2LjQ4NTMzMyA1LjU3NTExMSAxMy40MjU3NzggOC41MzMzMzMgMjAuNzA3NTU2SDc3NS41MDkzMzNjMzAuNjA2MjIyLTEwMi43NDEzMzMgNjAuODcxMTExLTIwNC41NzI0NDQgOTAuOTA4NDQ1LTMwNS4yNjU3NzggMTguNzczMzMzIDEuMjUxNTU2IDM2Ljc1MDIyMiAzLjg2ODQ0NCA1NC4zODU3NzggMy42NDA4ODkgMzMuMjIzMTExLTAuNjgyNjY3IDU4LjQ4MTc3OC0xNS44MTUxMTEgNzAuMDg3MTExLTQ5Ljk0ODQ0NSA1LjkxNjQ0NC0xNy4xODA0NDQgMTEuNDkxNTU2LTM0LjgxNiAxNC4yMjIyMjItNTIuNzkyODg5IDUuMDA2MjIyLTMyLjMxMjg4OSA4LjUzMzMzMy02NC43Mzk1NTYgMTEuNDkxNTU1LTk3LjM5Mzc3NyAwLjY4MjY2Ny0xNC4xMDg0NDQtMTIuMDYwNDQ0LTI2LjI4MjY2Ny0yNS40ODYyMjItMjYuNzM3Nzc4ek0zNzAuMTE5MTExIDU3Ny4zMDg0NDRjMS43MDY2NjctMC42ODI2NjcgNS41NzUxMTEgMC42ODI2NjcgNy4wNTQyMjIgMi4zODkzMzQgMTkuNTY5Nzc4IDIyLjY0MTc3OCAzOC45MTIgNDUuNTExMTExIDU3LjkxMjg4OSA2OC44MzU1NTUgOC4zMDU3NzggMTAuMDEyNDQ0IDE3LjE4MDQ0NCAxOC43NzMzMzMgMzAuNjA2MjIyIDE0LjMzNiA1LjkxNjQ0NC0xLjgyMDQ0NCAxMS45NDY2NjctNi4wMzAyMjIgMTYuMDQyNjY3LTExLjAzNjQ0NCAxOS41Njk3NzgtMjMuNjY1Nzc4IDM4LjM0MzExMS00Ny41NTkxMTEgNTcuMzQ0LTcxLjc5Mzc3OCAzLjg2ODQ0NC00Ljc3ODY2NyA3LjA1NDIyMi02LjI1Nzc3OCAxMi45NzA2NjctMy41MjcxMTEgMTkuOTExMTExIDkuNTU3MzMzIDQwLjA0OTc3OCAxOC40MzIgNjAuMzAyMjIyIDI3LjY0OC05LjU1NzMzMyA0Ni4zMDc1NTYtMTkuMDAwODg5IDkxLjcwNDg4OS0yOC4yMTY4ODkgMTM2Ljk4ODQ0NC0zLjY0MDg4OSAxNy41MjE3NzgtNy42MjMxMTEgMzUuMDQzNTU2LTEwLjkyMjY2NyA1Mi43OTI4ODktMC42ODI2NjcgNC40MzczMzMtMi4xNjE3NzggNi44MjY2NjctNy4wNTQyMjIgNi44MjY2NjctNzMuMzg2NjY3LTAuMjI3NTU2LTE0Ni42NTk1NTYtMC4yMjc1NTYtMjIwLjk1NjQ0NC0wLjIyNzU1Ni0xMy4wODQ0NDQtNjQuMDU2ODg5LTI2LjE2ODg4OS0xMjcuNDMxMTExLTM5LjQ4MDg4OS0xOTEuODI5MzMzIDIxLjUwNC0xMC41ODEzMzMgNDMuMDA4LTIxLjE2MjY2NyA2NC4zOTgyMjItMzEuNDAyNjY3ek0yNDcuMDExNTU2IDg2MC43Mjg4ODljLTEuMjUxNTU2IDMxLjE3NTExMS0zLjI5OTU1NiA2Mi4zNTAyMjItNS4wMDYyMjMgOTMuNjM5MTExLTAuMjI3NTU2IDQuNzc4NjY3LTEuNDc5MTExIDcuMDU0MjIyLTYuNDg1MzMzIDcuMDU0MjIyLTU1LjUyMzU1Ni0wLjIyNzU1Ni0xMTEuMjc0NjY3LTAuMjI3NTU2LTE2Ni45MTItMC4yMjc1NTUtMC41Njg4ODkgMC0xLjEzNzc3OC0wLjM0MTMzMy0yLjczMDY2Ny0wLjkxMDIyMyA1LjY4ODg4OS0yMi4xODY2NjcgMTAuOTIyNjY3LTQ0LjQ4NzExMSAxNi45NTI4ODktNjYuNDQ2MjIyIDEzLjQyNTc3OC00OS4zNzk1NTYgMjkuNDY4NDQ0LTk3LjczNTExMSA1MC44NTg2NjctMTQ0LjA0MjY2NiAxOS4wMDA4ODktNDAuOTYgNTEuMDg2MjIyLTY2LjkwMTMzMyA4Ni4zNTczMzMtODkuOTk4MjIzIDAuOTEwMjIyLTAuNTY4ODg5IDIuMDQ4LTAuNzk2NDQ0IDQuMjA5Nzc4LTEuMjUxNTU1IDQuMjA5Nzc4IDE5LjkxMTExMSA4LjMwNTc3OCAzOS40ODA4ODkgMTIuNzQzMTExIDU4LjgyMzExMSAxMC40Njc1NTYgNDcuMzMxNTU2IDExLjk0NjY2NyA5NS4yMzIgMTAuMDEyNDQ1IDE0My4zNnogbTQxMS41MzQyMjItOTMuMjk3Nzc4Yy0wLjY4MjY2NyA0Ni42NDg4ODktMC4zNDEzMzMgOTMuMjk3Nzc4LTAuNTY4ODg5IDEzOS45NDY2Njd2NTMuNDc1NTU1SDI5My41NDY2NjdjMi4wNDgtNDAuMzkxMTExIDMuODY4NDQ0LTgwLjU1NDY2NyA2LjAzMDIyMi0xMjMuMzM1MTExIDguMDc4MjIyIDE3LjUyMTc3OCAyMS42MTc3NzggMTcuMjk0MjIyIDM1LjYxMjQ0NCAxNy4yOTQyMjIgNDkuOTQ4NDQ0LTAuMjI3NTU2IDEwMC4wMTA2NjcgMCAxNDkuOTU5MTExIDAuMjI3NTU2IDMzLjIyMzExMSAwLjIyNzU1NiA2Ni4yMTg2NjcgMC43OTY0NDQgOTkuNDQxNzc4IDAuOTEwMjIyIDIxLjk1OTExMSAwLjIyNzU1NiAyOS42OTYtNi40ODUzMzMgMzQuNDc0NjY3LTI4Ljg5OTU1NSAxMy4wODQ0NDQtNjMuMjYwNDQ0IDI2LjE2ODg4OS0xMjYuNzQ4NDQ0IDM5LjI1MzMzMy0xOTAuMDA4ODg5IDAuNTY4ODg5LTIuNjE2ODg5IDEuNDc5MTExLTUuMTIgMi4xNjE3NzgtNy45NjQ0NDUgMS43MDY2NjcgMC43OTY0NDQgMi45NTgyMjIgMS4xMzc3NzggNC4wOTYgMi4wNDggMS4yNTE1NTYgMC43OTY0NDQgMi4zODkzMzMgMS43MDY2NjcgMy42NDA4ODkgMi4zODkzMzQtOC41MzMzMzMgNDQuMjU5NTU2LTkuMTAyMjIyIDg5LjMxNTU1Ni05LjY3MTExMSAxMzMuOTE2NDQ0eiBtMCAwIiBwLWlkPSIyNjcxOSIvPjwvc3ZnPg==;fontSize=15;" vertex="1" parent="1">
          <mxGeometry x="630" y="310" width="78" height="78" as="geometry" />
        </mxCell>
        <mxCell id="UHsi5IoeeFh57TIBE851-4" value="经销商" style="shape=image;verticalLabelPosition=bottom;labelBackgroundColor=#ffffff;verticalAlign=top;aspect=fixed;imageAspect=0;image=data:image/svg+xml,PHN2ZyB4bWxucz0iaHR0cDovL3d3dy53My5vcmcvMjAwMC9zdmciIHhtbG5zOnhsaW5rPSJodHRwOi8vd3d3LnczLm9yZy8xOTk5L3hsaW5rIiB0PSIxNjA2MTgzMTQ1MDM3IiBjbGFzcz0iaWNvbiIgdmlld0JveD0iMCAwIDEwMjQgMTAyNCIgdmVyc2lvbj0iMS4xIiBwLWlkPSIyNTQ4IiB3aWR0aD0iMTI4IiBoZWlnaHQ9IjEyOCI+PGRlZnM+PHN0eWxlIHR5cGU9InRleHQvY3NzIi8+PC9kZWZzPjxwYXRoIGQ9Ik00OTYuNjQgOTU2LjQxNkwzOTAuMTQ0IDg1Ni4wNjRsMzguOTEyLTIyMS4xODRoMTMwLjA0OEw1ODguOCA4NTcuMDg4bC05Mi4xNiA5OS4zMjh6IG0tNjMuNDg4LTEyMC44MzJsNjEuNDQgNTkuMzkyIDU1LjI5Ni01Ny4zNDQtMjEuNTA0LTE2MS43OTJoLTcwLjY1NmwtMjQuNTc2IDE1OS43NDR6IG0yMDguODk2LTI2OS4zMTJjOTIuMTYtNTEuMiAxNTMuNi0xNDcuNDU2IDE1My42LTI2MC4wOTYgMC0xNjMuODQtMTMyLjA5Ni0yOTYuOTYtMjkzLjg4OC0yOTYuOTZzLTI5My44ODggMTMyLjA5Ni0yOTMuODg4IDI5Ni45NiAxMzIuMDk2IDI5Ni45NiAyOTMuODg4IDI5Ni45NmgxMi4yODhjMjM2LjU0NCAwIDQ0MS4zNDQgMTY4Ljk2IDQ1OC43NTIgMzYwLjQ0OEg1My4yNDhjMTAuMjQtMTI4IDk0LjIwOC0yNDAuNjQgMjIyLjIwOC0zMDcuMiAxMi4yODgtNi4xNDQgMTcuNDA4LTIxLjUwNCAxMC4yNC0zMy43OTItNy4xNjgtMTIuMjg4LTIxLjUwNC0xNy40MDgtMzMuNzkyLTEwLjI0Qzk2LjI1NiA2ODguMTI4IDAgODMwLjQ2NCAwIDk4OS4xODR2MjUuNmgxMDI0di0yNS42YzAtMTk2LjYwOC0xNjUuODg4LTM3MS43MTItMzgxLjk1Mi00MjIuOTEyek0yNTYgMzA2LjE3NmMwLTEzNC4xNDQgMTA4LjU0NC0yNDMuNzEyIDI0My43MTItMjQzLjcxMnMyNDMuNzEyIDEwOC41NDQgMjQzLjcxMiAyNDIuNjg4LTEwOS41NjggMjQzLjcxMi0yNDMuNzEyIDI0My43MTJTMjU2IDQ0MC4zMiAyNTYgMzA2LjE3NnoiIHAtaWQ9IjI1NDkiLz48L3N2Zz4=;fontSize=15;strokeWidth=2;" vertex="1" parent="1">
          <mxGeometry x="130" y="310" width="78" height="78" as="geometry" />
        </mxCell>
        <mxCell id="UHsi5IoeeFh57TIBE851-12" value="" style="endArrow=none;html=1;strokeWidth=3;fontSize=15;endFill=0;startArrow=classic;startFill=1;" edge="1" parent="1">
          <mxGeometry width="50" height="50" relative="1" as="geometry">
            <mxPoint x="468" y="380" as="sourcePoint" />
            <mxPoint x="618" y="380" as="targetPoint" />
          </mxGeometry>
        </mxCell>
        <mxCell id="UHsi5IoeeFh57TIBE851-14" value="卖农产品" style="edgeLabel;html=1;align=center;verticalAlign=middle;resizable=0;points=[];fontSize=15;" vertex="1" connectable="0" parent="UHsi5IoeeFh57TIBE851-12">
          <mxGeometry x="-0.0644" y="-2" relative="1" as="geometry">
            <mxPoint x="14.12" y="-2" as="offset" />
          </mxGeometry>
        </mxCell>
        <mxCell id="UHsi5IoeeFh57TIBE851-21" value="" style="endArrow=none;html=1;strokeWidth=3;fontSize=15;endFill=0;startArrow=classic;startFill=1;" edge="1" parent="1">
          <mxGeometry width="50" height="50" relative="1" as="geometry">
            <mxPoint x="220" y="380" as="sourcePoint" />
            <mxPoint x="380" y="380" as="targetPoint" />
          </mxGeometry>
        </mxCell>
        <mxCell id="UHsi5IoeeFh57TIBE851-22" value="合适价格交易" style="edgeLabel;html=1;align=center;verticalAlign=middle;resizable=0;points=[];fontSize=15;" vertex="1" connectable="0" parent="UHsi5IoeeFh57TIBE851-21">
          <mxGeometry x="-0.0644" y="-2" relative="1" as="geometry">
            <mxPoint y="-2" as="offset" />
          </mxGeometry>
        </mxCell>
        <mxCell id="UHsi5IoeeFh57TIBE851-23" value="" style="endArrow=classic;html=1;strokeWidth=3;fontSize=15;endFill=1;startArrow=none;startFill=0;" edge="1" parent="1">
          <mxGeometry width="50" height="50" relative="1" as="geometry">
            <mxPoint x="220" y="330" as="sourcePoint" />
            <mxPoint x="380" y="330" as="targetPoint" />
          </mxGeometry>
        </mxCell>
        <mxCell id="UHsi5IoeeFh57TIBE851-24" value="卖商品" style="edgeLabel;html=1;align=center;verticalAlign=middle;resizable=0;points=[];fontSize=15;" vertex="1" connectable="0" parent="UHsi5IoeeFh57TIBE851-23">
          <mxGeometry x="-0.0644" y="-2" relative="1" as="geometry">
            <mxPoint y="-2" as="offset" />
          </mxGeometry>
        </mxCell>
        <mxCell id="UHsi5IoeeFh57TIBE851-27" value="1.收集买卖需求" style="edgeLabel;html=1;align=center;verticalAlign=middle;resizable=0;points=[];fontSize=20;fontStyle=1" vertex="1" connectable="0" parent="UHsi5IoeeFh57TIBE851-23">
          <mxGeometry x="-0.0644" y="-2" relative="1" as="geometry">
            <mxPoint x="125" y="-172" as="offset" />
          </mxGeometry>
        </mxCell>
        <mxCell id="UHsi5IoeeFh57TIBE851-29" value="2.谈判价格交易" style="edgeLabel;html=1;align=center;verticalAlign=middle;resizable=0;points=[];fontSize=20;fontStyle=1" vertex="1" connectable="0" parent="UHsi5IoeeFh57TIBE851-23">
          <mxGeometry x="-0.0644" y="-2" relative="1" as="geometry">
            <mxPoint x="125" y="-132" as="offset" />
          </mxGeometry>
        </mxCell>
        <mxCell id="UHsi5IoeeFh57TIBE851-30" value="3.获得佣金收益" style="edgeLabel;html=1;align=center;verticalAlign=middle;resizable=0;points=[];fontSize=20;fontStyle=1" vertex="1" connectable="0" parent="UHsi5IoeeFh57TIBE851-23">
          <mxGeometry x="-0.0644" y="-2" relative="1" as="geometry">
            <mxPoint x="125" y="-92" as="offset" />
          </mxGeometry>
        </mxCell>
        <mxCell id="UHsi5IoeeFh57TIBE851-25" value="" style="endArrow=classic;html=1;strokeWidth=3;fontSize=15;endFill=1;startArrow=none;startFill=0;" edge="1" parent="1">
          <mxGeometry width="50" height="50" relative="1" as="geometry">
            <mxPoint x="468" y="330" as="sourcePoint" />
            <mxPoint x="620" y="330" as="targetPoint" />
          </mxGeometry>
        </mxCell>
        <mxCell id="UHsi5IoeeFh57TIBE851-26" value="合适价格交易" style="edgeLabel;html=1;align=center;verticalAlign=middle;resizable=0;points=[];fontSize=15;" vertex="1" connectable="0" parent="UHsi5IoeeFh57TIBE851-25">
          <mxGeometry x="-0.0644" y="-2" relative="1" as="geometry">
            <mxPoint y="-2" as="offset" />
          </mxGeometry>
        </mxCell>
      </root>
    </mxGraphModel>
  </diagram>
</mxfile>
